<svg width="1116" height="55" viewBox="0 0 1116 55" fill="none" xmlns="http://www.w3.org/2000/svg">
<path d="M1114.48 46.9004H1114.79C1114.07 48.1467 1112.55 49.2012 1110.36 49.2012C1108.61 49.2012 1107.2 48.5187 1106.22 47.3738C1105.24 46.2215 1104.67 44.5668 1104.67 42.5918C1104.67 38.6368 1107.01 35.9316 1110.11 35.9316C1112.87 35.9316 1115.4 38.1348 1115.4 42.1348V42.3457H1105.46H1104.95L1104.96 42.8533C1104.99 44.6034 1105.49 46.1448 1106.42 47.2582C1107.36 48.381 1108.72 49.0332 1110.36 49.0332C1112.54 49.0332 1113.85 47.8723 1114.48 46.9004ZM1104.99 41.6765L1104.96 42.2031H1105.49H1114.6H1115.1V41.7031C1115.1 38.6224 1113.01 36.0996 1110.11 36.0996C1107.2 36.0996 1105.15 38.637 1104.99 41.6765Z" stroke="white"/>
<path d="M1096.62 49.2012C1094.97 49.2012 1093.61 48.5141 1092.65 47.3569C1091.68 46.1926 1091.11 44.5283 1091.11 42.5664C1091.11 38.6637 1093.43 35.9316 1096.6 35.9316C1098.83 35.9316 1100.59 37.2382 1101.14 39.2227H1100.85C1100.34 37.4195 1098.74 36.0996 1096.62 36.0996C1093.48 36.0996 1091.4 38.8997 1091.4 42.541C1091.4 44.3552 1091.9 45.9677 1092.81 47.1388C1093.73 48.3183 1095.05 49.0332 1096.62 49.0332C1098.67 49.0332 1100.35 47.8261 1100.88 45.8848H1101.16C1100.62 47.862 1098.91 49.2012 1096.62 49.2012Z" stroke="white"/>
<path d="M1082.43 36.125C1081.63 36.125 1080.89 36.308 1080.25 36.6522C1080.88 36.2157 1081.71 35.957 1082.71 35.957C1084 35.957 1085.03 36.3753 1085.75 37.1078C1086.46 37.8408 1086.91 38.9375 1086.91 40.3828V48.9219H1086.64V40.459C1086.64 39.1964 1086.23 38.1059 1085.48 37.328C1084.73 36.5485 1083.67 36.125 1082.43 36.125ZM1078.52 38.3184H1078.59C1078.24 38.9703 1078.05 39.7384 1078.05 40.5859V48.9219H1077.78V36.1348H1078.02V37.8184V38.3184H1078.52Z" stroke="white"/>
<path d="M1072.66 46.9004H1072.97C1072.25 48.1467 1070.73 49.2012 1068.54 49.2012C1066.79 49.2012 1065.38 48.5187 1064.41 47.3738C1063.42 46.2215 1062.85 44.5668 1062.85 42.5918C1062.85 38.6368 1065.2 35.9316 1068.29 35.9316C1071.05 35.9316 1073.58 38.1348 1073.58 42.1348V42.3457H1063.64H1063.13L1063.14 42.8533C1063.17 44.6034 1063.67 46.1448 1064.6 47.2582C1065.55 48.381 1066.9 49.0332 1068.54 49.0332C1070.72 49.0332 1072.03 47.8723 1072.66 46.9004ZM1063.17 41.6765L1063.14 42.2031H1063.67H1072.78H1073.28V41.7031C1073.28 38.6224 1071.19 36.0996 1068.29 36.0996C1065.38 36.0996 1063.33 38.637 1063.17 41.6765Z" stroke="white"/>
<path d="M1057.73 45.875H1057.71C1058.13 44.9283 1058.35 43.7817 1058.35 42.4902C1058.35 41.2328 1058.14 40.066 1057.71 39.0801H1057.73H1057.85H1058.35V38.5801V36.1348H1058.6V49.752C1058.6 51.365 1058.08 52.4988 1057.24 53.2363C1056.4 53.9825 1055.16 54.3809 1053.61 54.3809C1051.23 54.3809 1049.49 53.5132 1048.91 51.9531H1049.24C1049.85 53.5496 1051.65 54.2383 1053.61 54.2383C1055.01 54.2383 1056.2 53.8965 1057.05 53.1158C1057.9 52.3285 1058.33 51.1681 1058.33 49.7012V46.375V45.875H1057.83H1057.73ZM1056.04 36.9071C1055.32 36.3911 1054.45 36.0996 1053.46 36.0996C1051.89 36.0996 1050.64 36.8379 1049.81 38.0186C1048.98 39.1846 1048.57 40.7665 1048.57 42.4902C1048.57 44.24 1048.99 45.7718 1049.83 46.8793C1050.67 48.0018 1051.92 48.6523 1053.46 48.6523C1054.49 48.6523 1055.39 48.3705 1056.14 47.84C1055.46 48.4377 1054.52 48.8203 1053.33 48.8203C1051.84 48.8203 1050.59 48.2185 1049.71 47.1457C1048.82 46.0648 1048.27 44.4721 1048.27 42.4648C1048.27 40.4665 1048.8 38.8256 1049.69 37.696C1050.57 36.5766 1051.83 35.9316 1053.36 35.9316C1054.51 35.9316 1055.38 36.3167 1056.04 36.9071Z" stroke="white"/>
<path d="M1043.75 48.9219V36.1348H1044.05V48.9219H1043.75ZM1043.91 32.7227C1043.61 32.7227 1043.4 32.4902 1043.4 32.2578C1043.4 32.0254 1043.61 31.793 1043.91 31.793C1044.19 31.793 1044.4 32.0174 1044.4 32.2578C1044.4 32.4982 1044.19 32.7227 1043.91 32.7227Z" stroke="white"/>
<path d="M1038.77 31.5391V48.9219H1038.5V31.5391H1038.77Z" stroke="white"/>
<path d="M1033.54 31.5391V48.9219H1033.27V31.5391H1033.54Z" stroke="white"/>
<path d="M1028.15 46.9004H1028.46C1027.75 48.1467 1026.22 49.2012 1024.03 49.2012C1022.28 49.2012 1020.87 48.5187 1019.9 47.3738C1018.91 46.2215 1018.34 44.5668 1018.34 42.5918C1018.34 38.6368 1020.69 35.9316 1023.78 35.9316C1026.54 35.9316 1029.07 38.1348 1029.07 42.1348V42.3457H1019.13H1018.62L1018.63 42.8533C1018.66 44.6034 1019.16 46.1448 1020.09 47.2582C1021.04 48.381 1022.39 49.0332 1024.03 49.0332C1026.21 49.0332 1027.52 47.8723 1028.15 46.9004ZM1018.66 41.6765L1018.63 42.2031H1019.16H1028.27H1028.77V41.7031C1028.77 38.6224 1026.68 36.0996 1023.78 36.0996C1020.87 36.0996 1018.82 38.637 1018.66 41.6765Z" stroke="white"/>
<path d="M1011.16 36.252H1009.63V36.1348H1011.16H1011.66V35.6348V32.834H1011.93V35.6348V36.1348H1012.43H1014.82V36.252H1012.43H1011.93V36.752V46.0449C1011.93 46.9942 1012.23 47.7293 1012.77 48.2227C1013.3 48.7085 1014 48.9062 1014.69 48.9062V48.9064L1014.7 48.9061L1015.18 48.8938V49.1343C1015.02 49.1447 1014.83 49.1504 1014.59 49.1504C1013.06 49.1504 1011.66 48.128 1011.66 46.2988V36.752V36.252H1011.16Z" stroke="white"/>
<path d="M1001.33 36.125C1000.53 36.125 999.789 36.308 999.149 36.6522C999.782 36.2157 1000.61 35.957 1001.61 35.957C1002.9 35.957 1003.93 36.3753 1004.65 37.1078C1005.37 37.8408 1005.81 38.9375 1005.81 40.3828V48.9219H1005.54V40.459C1005.54 39.1964 1005.14 38.1059 1004.38 37.328C1003.63 36.5485 1002.57 36.125 1001.33 36.125ZM997.423 38.3184H997.487C997.138 38.9703 996.948 39.7384 996.948 40.5859V48.9219H996.679V36.1348H996.923V37.8184V38.3184H997.423Z" stroke="white"/>
<path d="M991.362 31.5391V48.9219H991.042V31.5391H991.362Z" stroke="white"/>
<path d="M979.683 31.5391V48.9219H979.413V31.5391H979.683Z" stroke="white"/>
<path d="M969.761 42.0238L969.761 42.0239L969.767 42.0233C970.736 41.9352 973.028 41.7833 973.686 41.7453L974.157 41.7181V41.2461V39.7734C974.157 38.6756 973.776 37.733 973.04 37.0694C972.31 36.4111 971.285 36.0742 970.077 36.0742C968.209 36.0742 966.646 36.9031 966.08 38.3848H965.76C966.272 36.9235 967.884 35.9316 970.128 35.9316C971.218 35.9316 972.299 36.2173 973.096 36.8384C973.874 37.4451 974.427 38.4062 974.427 39.875V48.9219H974.157V47.0352V46.5352H973.657H973.556H973.536C973.937 45.7705 974.157 44.8753 974.157 43.9121V42.3379V41.7904L973.612 41.8399C972.915 41.9033 970.689 42.0803 969.95 42.1178L969.95 42.1177L969.94 42.1184C968.452 42.2238 967.342 42.5901 966.598 43.2149C965.834 43.856 965.515 44.718 965.515 45.6641C965.515 46.7082 965.932 47.5732 966.638 48.1694C967.336 48.7584 968.283 49.0586 969.315 49.0586C970.287 49.0586 971.155 48.7999 971.878 48.3465C971.187 48.8787 970.278 49.2266 969.163 49.2266C968.055 49.2266 967.074 48.8885 966.378 48.2829C965.69 47.6845 965.245 46.7966 965.245 45.6133C965.245 44.5289 965.627 43.719 966.34 43.1381C967.072 42.5411 968.203 42.1465 969.761 42.0238Z" stroke="white"/>
<path d="M957.153 49.2012C955.502 49.2012 954.138 48.5141 953.177 47.3569C952.211 46.1926 951.636 44.5283 951.636 42.5664C951.636 38.6637 953.958 35.9316 957.128 35.9316C959.356 35.9316 961.12 37.2382 961.667 39.2227H961.383C960.872 37.4195 959.274 36.0996 957.153 36.0996C954.008 36.0996 951.931 38.8997 951.931 42.541C951.931 44.3552 952.431 45.9677 953.34 47.1388C954.256 48.3183 955.579 49.0332 957.153 49.0332C959.196 49.0332 960.875 47.8261 961.411 45.8848H961.693C961.153 47.862 959.44 49.2012 957.153 49.2012Z" stroke="white"/>
<path d="M947.116 48.9219V36.1348H947.411V48.9219H947.116ZM947.276 32.7227C946.969 32.7227 946.761 32.4902 946.761 32.2578C946.761 32.0254 946.969 31.793 947.276 31.793C947.55 31.793 947.767 32.0174 947.767 32.2578C947.767 32.4982 947.55 32.7227 947.276 32.7227Z" stroke="white"/>
<path d="M940.201 48.9219H939.931V36.752V36.252H939.431H937.899V36.1348H939.431H939.931V35.6348V33.5527C939.931 32.6084 940.205 31.9083 940.658 31.4458C941.109 30.9849 941.793 30.7012 942.731 30.7012C942.957 30.7012 943.213 30.7186 943.45 30.743V30.9163C943.266 30.9006 943.09 30.8945 942.935 30.8945C942.104 30.8945 941.4 31.1334 940.91 31.6653C940.427 32.1899 940.226 32.9211 940.226 33.7559V35.6348V36.1348H940.726H943.222V36.252H940.726H940.227L940.226 36.751L940.201 48.9219Z" stroke="white"/>
<path d="M933.583 48.9219V36.1348H933.878V48.9219H933.583ZM933.743 32.7227C933.435 32.7227 933.228 32.4902 933.228 32.2578C933.228 32.0254 933.435 31.793 933.743 31.793C934.017 31.793 934.233 32.0174 934.233 32.2578C934.233 32.4982 934.017 32.7227 933.743 32.7227Z" stroke="white"/>
<path d="M925.466 36.252H923.935V36.1348H925.466H925.966V35.6348V32.834H926.235V35.6348V36.1348H926.735H929.13V36.252H926.735H926.235V36.752V46.0449C926.235 46.9942 926.541 47.7293 927.08 48.2227C927.61 48.7085 928.307 48.9062 928.995 48.9062V48.9064L929.008 48.9061L929.485 48.8938V49.1343C929.332 49.1447 929.141 49.1504 928.894 49.1504C927.362 49.1504 925.966 48.128 925.966 46.2988V36.752V36.252H925.466Z" stroke="white"/>
<path d="M920.827 35.9382V36.1833C920.753 36.1786 920.674 36.1758 920.591 36.1758C919.557 36.1758 918.626 36.4821 917.891 37.0159C918.548 36.3517 919.531 35.934 920.658 35.9317L920.827 35.9382ZM916.747 38.293C916.401 38.9044 916.206 39.6216 916.206 40.4082V48.9219H915.937V36.1348H916.181V37.793V38.293H916.681H916.747Z" stroke="white"/>
<path d="M909.991 43.4902L909.873 43.1582H909.521H901.649H901.297L901.178 43.4902L899.24 48.9219H898.908L905.174 31.5391H905.97L912.261 48.9219H911.93L909.991 43.4902ZM901.61 42.2975L901.373 42.9648H902.081H909.114H909.824L909.585 42.2964L906.107 32.5718L905.988 32.2402H905.636H905.534H905.181L905.063 32.5729L901.61 42.2975Z" stroke="white"/>
<path d="M886.24 36.921C885.521 36.3957 884.649 36.0996 883.647 36.0996C882.074 36.0996 880.829 36.8382 879.995 38.0261C879.171 39.1988 878.755 40.7932 878.755 42.541C878.755 44.3008 879.171 45.9072 879.993 47.0891C880.827 48.2863 882.072 49.0332 883.647 49.0332C884.616 49.0332 885.463 48.7537 886.167 48.2569C885.51 48.829 884.64 49.2012 883.521 49.2012C882.005 49.2012 880.759 48.5475 879.879 47.4086C878.991 46.2593 878.46 44.5914 878.46 42.5664C878.46 40.5559 878.996 38.8878 879.891 37.7345C880.778 36.5909 882.032 35.9316 883.546 35.9316C884.696 35.9316 885.581 36.3239 886.24 36.921ZM888.54 42.541C888.54 41.26 888.323 40.0766 887.894 39.0801H887.913H888.015H888.515V38.5801V31.5391H888.784V48.9219H888.54V46.5527V46.0527H888.04H887.913H887.883C888.319 45.0432 888.54 43.8417 888.54 42.541Z" stroke="white"/>
<path d="M874.106 46.9004H874.419C873.7 48.1467 872.176 49.2012 869.987 49.2012C868.237 49.2012 866.829 48.5187 865.851 47.3738C864.867 46.2215 864.292 44.5668 864.292 42.5918C864.292 38.6368 866.641 35.9316 869.733 35.9316C872.495 35.9316 875.022 38.1348 875.022 42.1348V42.3457H865.087H864.579L864.587 42.8533C864.614 44.6034 865.115 46.1448 866.05 47.2582C866.992 48.381 868.346 49.0332 869.987 49.0332C872.169 49.0332 873.479 47.8723 874.106 46.9004ZM864.613 41.6765L864.585 42.2031H865.112H874.228H874.728V41.7031C874.728 38.6224 872.634 36.0996 869.733 36.0996C866.828 36.0996 864.775 38.637 864.613 41.6765Z" stroke="white"/>
<path d="M859.772 48.9219V36.1348H860.067V48.9219H859.772ZM859.933 32.7227C859.625 32.7227 859.417 32.4902 859.417 32.2578C859.417 32.0254 859.625 31.793 859.933 31.793C860.207 31.793 860.423 32.0174 860.423 32.2578C860.423 32.4982 860.207 32.7227 859.933 32.7227Z" stroke="white"/>
<path d="M854.786 31.5391V48.9219H854.517V31.5391H854.786Z" stroke="white"/>
<path d="M845.282 49.2012C844.156 49.2012 843.278 48.8253 842.618 48.2502C843.32 48.751 844.165 49.0332 845.13 49.0332C846.705 49.0332 847.95 48.2863 848.784 47.0891C849.607 45.9072 850.022 44.3008 850.022 42.541C850.022 40.7948 849.613 39.2003 848.793 38.0269C847.961 36.8374 846.715 36.0996 845.13 36.0996C844.154 36.0996 843.303 36.381 842.598 36.8819C843.248 36.3066 844.119 35.9316 845.257 35.9316C846.772 35.9316 848.018 36.5853 848.898 37.7242C849.786 38.8735 850.317 40.5414 850.317 42.5664C850.317 44.5769 849.781 46.2457 848.892 47.3996C848.009 48.5441 846.769 49.2012 845.282 49.2012ZM840.901 39.0801C840.477 40.0769 840.263 41.2604 840.263 42.541C840.263 43.842 840.484 45.0434 840.918 46.0527H840.89H840.763H840.263V46.5527V54.1016H839.993V36.1348H840.237V38.5801V39.0801H840.737H840.89H840.901Z" stroke="white"/>
<path d="M830.759 49.2012C829.633 49.2012 828.754 48.8253 828.094 48.2502C828.796 48.751 829.641 49.0332 830.606 49.0332C832.182 49.0332 833.427 48.2863 834.26 47.0891C835.083 45.9072 835.499 44.3008 835.499 42.541C835.499 40.7948 835.09 39.2003 834.269 38.0269C833.437 36.8374 832.191 36.0996 830.606 36.0996C829.631 36.0996 828.779 36.381 828.074 36.8819C828.725 36.3066 829.596 35.9316 830.733 35.9316C832.249 35.9316 833.495 36.5853 834.375 37.7242C835.263 38.8735 835.794 40.5414 835.794 42.5664C835.794 44.5769 835.258 46.2457 834.368 47.3996C833.486 48.5441 832.245 49.2012 830.759 49.2012ZM826.378 39.0801C825.953 40.0769 825.739 41.2604 825.739 42.541C825.739 43.842 825.96 45.0434 826.395 46.0527H826.366H826.239H825.739V46.5527V54.1016H825.47V36.1348H825.714V38.5801V39.0801H826.214H826.366H826.378Z" stroke="white"/>
<path d="M819.525 43.4902L819.406 43.1582H819.054H811.183H810.83L810.712 43.4902L808.774 48.9219H808.441L814.708 31.5391H815.504L821.794 48.9219H821.463L819.525 43.4902ZM811.143 42.2975L810.906 42.9648H811.614H818.647H819.357L819.118 42.2964L815.64 32.5718L815.521 32.2402H815.169H815.067H814.714L814.596 32.5729L811.143 42.2975Z" stroke="white"/>
<path d="M796.77 48.9219H796.499V36.752V36.252H795.999H794.468V36.1348H795.999H796.499V35.6348V33.5527C796.499 32.6084 796.774 31.9083 797.226 31.4458C797.677 30.9849 798.362 30.7012 799.3 30.7012C799.526 30.7012 799.782 30.7186 800.019 30.743V30.9163C799.835 30.9006 799.658 30.8945 799.503 30.8945C798.672 30.8945 797.968 31.1334 797.478 31.6653C796.995 32.1899 796.794 32.9211 796.794 33.7559V35.6348V36.1348H797.294H799.79V36.252H797.294H796.795L796.794 36.751L796.77 48.9219Z" stroke="white"/>
<path d="M785.767 49.2012C782.644 49.2012 780.3 46.5415 780.3 42.5664C780.3 38.5913 782.644 35.9316 785.767 35.9316C788.889 35.9316 791.233 38.5913 791.233 42.5664C791.233 46.5415 788.889 49.2012 785.767 49.2012ZM785.767 49.0332C787.372 49.0332 788.683 48.2876 789.578 47.0977C790.465 45.918 790.938 44.3144 790.938 42.5664C790.938 40.8305 790.465 39.2274 789.578 38.0452C788.684 36.8531 787.374 36.0996 785.767 36.0996C784.158 36.0996 782.847 36.8609 781.954 38.0553C781.068 39.24 780.595 40.8425 780.595 42.5664C780.595 44.3144 781.068 45.918 781.955 47.0977C782.85 48.2876 784.161 49.0332 785.767 49.0332Z" stroke="white"/>
<path d="M775.483 49.0488C775.183 49.0488 774.917 48.798 774.917 48.457C774.917 48.1492 775.176 47.8906 775.483 47.8906C775.824 47.8906 776.075 48.1568 776.075 48.457C776.075 48.7903 775.817 49.0488 775.483 49.0488Z" stroke="white"/>
<path d="M766.8 36.252H765.269V36.1348H766.8H767.3V35.6348V32.834H767.569V35.6348V36.1348H768.069H770.464V36.252H768.069H767.569V36.752V46.0449C767.569 46.9942 767.875 47.7293 768.414 48.2227C768.944 48.7085 769.641 48.9062 770.329 48.9062V48.9064L770.342 48.9061L770.819 48.8938V49.1343C770.666 49.1447 770.475 49.1504 770.228 49.1504C768.696 49.1504 767.3 48.128 767.3 46.2988V36.752V36.252H766.8Z" stroke="white"/>
<path d="M757.177 49.2012C756.051 49.2012 755.172 48.8253 754.512 48.2502C755.214 48.751 756.059 49.0332 757.024 49.0332C758.6 49.0332 759.845 48.2863 760.678 47.0891C761.501 45.9072 761.917 44.3008 761.917 42.541C761.917 40.7948 761.508 39.2003 760.687 38.0269C759.855 36.8374 758.609 36.0996 757.024 36.0996C756.049 36.0996 755.197 36.381 754.492 36.8819C755.143 36.3066 756.014 35.9316 757.151 35.9316C758.667 35.9316 759.913 36.5853 760.793 37.7242C761.681 38.8735 762.212 40.5414 762.212 42.5664C762.212 44.5769 761.675 46.2457 760.786 47.3996C759.904 48.5441 758.663 49.2012 757.177 49.2012ZM752.796 39.0801C752.371 40.0769 752.157 41.2604 752.157 42.541C752.157 43.842 752.378 45.0434 752.813 46.0527H752.784H752.657H752.157V46.5527V54.1016H751.888V36.1348H752.132V38.5801V39.0801H752.632H752.784H752.796Z" stroke="white"/>
<path d="M746.772 46.9004H747.085C746.366 48.1467 744.842 49.2012 742.653 49.2012C740.903 49.2012 739.495 48.5187 738.517 47.3738C737.533 46.2215 736.958 44.5668 736.958 42.5918C736.958 38.6368 739.307 35.9316 742.399 35.9316C745.161 35.9316 747.688 38.1348 747.688 42.1348V42.3457H737.753H737.245L737.253 42.8533C737.28 44.6034 737.781 46.1448 738.716 47.2582C739.658 48.381 741.012 49.0332 742.653 49.0332C744.835 49.0332 746.145 47.8723 746.772 46.9004ZM737.279 41.6765L737.251 42.2031H737.778H746.894H747.394V41.7031C747.394 38.6224 745.3 36.0996 742.399 36.0996C739.494 36.0996 737.441 38.637 737.279 41.6765Z" stroke="white"/>
<path d="M720.774 48.2031V48.7031H721.274H725.108C727.627 48.7031 729.629 47.9175 730.995 46.4127C732.354 44.9154 733.022 42.7739 733.022 40.1797L733.022 40.1771C733.009 37.6244 732.361 35.5067 731.065 34.0207C729.759 32.5242 727.852 31.7324 725.464 31.7324H721.274H720.774V32.2324V48.2031ZM725.159 48.9219H720.454V31.5391H725.54C728.015 31.5391 729.94 32.3542 731.25 33.8026C732.567 35.2572 733.317 37.4095 733.317 40.1786C733.305 42.999 732.536 45.1741 731.17 46.6403C729.808 48.1015 727.794 48.9219 725.159 48.9219Z" stroke="white"/>
<path d="M708.24 48.5254H708.58L707.108 53.7715H707.025L708.24 48.5254Z" stroke="white"/>
<path d="M704.312 36.1348H704.617L699.044 51.5369L699.044 51.5369L699.043 51.5396C698.722 52.4434 698.292 53.0764 697.772 53.4843C697.257 53.8878 696.615 54.1016 695.808 54.1016C695.751 54.1016 695.692 54.1001 695.633 54.0979L695.636 53.9323C695.669 53.9331 695.701 53.9336 695.731 53.9336C696.224 53.9336 696.824 53.8805 697.405 53.4995C697.985 53.1196 698.476 52.461 698.867 51.3969L698.867 51.3969L698.868 51.3937L699.452 49.7687L699.513 49.599L699.452 49.4295L694.641 36.1348H694.946L699.094 47.9373L699.211 48.2715H699.565H699.692H700.047L700.164 47.9373L704.312 36.1348Z" stroke="white"/>
<path d="M687.66 36.921C686.941 36.3957 686.068 36.0996 685.067 36.0996C683.494 36.0996 682.249 36.8382 681.415 38.0261C680.591 39.1988 680.175 40.7932 680.175 42.541C680.175 44.3008 680.591 45.9072 681.413 47.0891C682.247 48.2863 683.492 49.0332 685.067 49.0332C686.036 49.0332 686.883 48.7537 687.587 48.2569C686.93 48.829 686.06 49.2012 684.94 49.2012C683.425 49.2012 682.179 48.5475 681.299 47.4086C680.411 46.2593 679.88 44.5914 679.88 42.5664C679.88 40.5559 680.416 38.8878 681.311 37.7345C682.198 36.5909 683.452 35.9316 684.966 35.9316C686.116 35.9316 687.001 36.3239 687.66 36.921ZM689.96 42.541C689.96 41.26 689.743 40.0766 689.314 39.0801H689.333H689.435H689.935V38.5801V31.5391H690.204V48.9219H689.96V46.5527V46.0527H689.46H689.333H689.303C689.739 45.0432 689.96 43.8417 689.96 42.541Z" stroke="white"/>
<path d="M670.976 49.2012C667.853 49.2012 665.509 46.5415 665.509 42.5664C665.509 38.5913 667.853 35.9316 670.976 35.9316C674.098 35.9316 676.442 38.5913 676.442 42.5664C676.442 46.5415 674.098 49.2012 670.976 49.2012ZM670.976 49.0332C672.581 49.0332 673.892 48.2876 674.787 47.0977C675.674 45.918 676.147 44.3144 676.147 42.5664C676.147 40.8305 675.674 39.2274 674.787 38.0452C673.893 36.8531 672.583 36.0996 670.976 36.0996C669.367 36.0996 668.056 36.8609 667.163 38.0553C666.277 39.24 665.804 40.8425 665.804 42.5664C665.804 44.3144 666.277 45.918 667.164 47.0977C668.059 48.2876 669.37 49.0332 670.976 49.0332Z" stroke="white"/>
<path d="M661.31 31.5391V48.9219H661.04V31.5391H661.31Z" stroke="white"/>
<path d="M651.374 49.2012C648.251 49.2012 645.907 46.5415 645.907 42.5664C645.907 38.5913 648.251 35.9316 651.374 35.9316C654.497 35.9316 656.841 38.5913 656.841 42.5664C656.841 46.5415 654.497 49.2012 651.374 49.2012ZM651.374 49.0332C652.98 49.0332 654.29 48.2876 655.185 47.0977C656.073 45.918 656.546 44.3144 656.546 42.5664C656.546 40.8305 656.073 39.2274 655.186 38.0452C654.292 36.8531 652.981 36.0996 651.374 36.0996C649.765 36.0996 648.455 36.8609 647.562 38.0553C646.676 39.24 646.202 40.8425 646.202 42.5664C646.202 44.3144 646.675 45.918 647.563 47.0977C648.458 48.2876 649.768 49.0332 651.374 49.0332Z" stroke="white"/>
<path d="M637.231 36.125C636.431 36.125 635.688 36.308 635.047 36.6522C635.681 36.2157 636.51 35.957 637.511 35.957C638.796 35.957 639.833 36.3753 640.549 37.1078C641.266 37.8408 641.708 38.9375 641.708 40.3828V48.9219H641.438V40.459C641.438 39.1964 641.034 38.1059 640.282 37.328C639.529 36.5485 638.466 36.125 637.231 36.125ZM633.321 38.3184H633.386C633.037 38.9703 632.847 39.7384 632.847 40.5859V48.9219H632.577V36.1348H632.821V37.8184V38.3184H633.321Z" stroke="white"/>
<path d="M623.14 36.125C622.318 36.125 621.558 36.3103 620.907 36.6595C621.545 36.2157 622.388 35.957 623.419 35.957C624.704 35.957 625.749 36.3755 626.471 37.1092C627.194 37.8429 627.642 38.9393 627.642 40.3828V48.9219H627.347V40.459C627.347 39.1849 626.943 38.0933 626.19 37.3176C625.435 36.5406 624.372 36.125 623.14 36.125ZM619.204 38.3184H619.245C618.894 38.9705 618.704 39.7388 618.704 40.5859V48.9219H618.435V31.5391H618.704V37.8184V38.3184H619.204Z" stroke="white"/>
<path d="M609.632 49.2012C607.981 49.2012 606.616 48.5141 605.656 47.3569C604.689 46.1926 604.114 44.5283 604.114 42.5664C604.114 38.6637 606.436 35.9316 609.606 35.9316C611.834 35.9316 613.599 37.2382 614.145 39.2227H613.862C613.35 37.4195 611.752 36.0996 609.632 36.0996C606.487 36.0996 604.409 38.8997 604.409 42.541C604.409 44.3552 604.909 45.9677 605.819 47.1388C606.735 48.3183 608.057 49.0332 609.632 49.0332C611.675 49.0332 613.353 47.8261 613.889 45.8848H614.171C613.631 47.862 611.918 49.2012 609.632 49.2012Z" stroke="white"/>
<path d="M599.76 46.9004H600.073C599.355 48.1467 597.831 49.2012 595.642 49.2012C593.891 49.2012 592.483 48.5187 591.505 47.3738C590.522 46.2215 589.946 44.5668 589.946 42.5918C589.946 38.6368 592.295 35.9316 595.388 35.9316C598.149 35.9316 600.677 38.1348 600.677 42.1348V42.3457H590.741H590.234L590.241 42.8533C590.268 44.6034 590.77 46.1448 591.704 47.2582C592.646 48.381 594 49.0332 595.642 49.0332C597.824 49.0332 599.134 47.8723 599.76 46.9004ZM590.267 41.6765L590.239 42.2031H590.767H599.882H600.382V41.7031C600.382 38.6224 598.289 36.0996 595.388 36.0996C592.482 36.0996 590.429 38.637 590.267 41.6765Z" stroke="white"/>
<path d="M581.88 31.7324H576.515V31.5391H588.565V31.7324H583.226H582.726V32.2324V48.9219H582.38V32.2324V31.7324H581.88Z" stroke="white"/>
<path d="M563.423 36.921C562.705 36.3957 561.832 36.0996 560.831 36.0996C559.258 36.0996 558.013 36.8382 557.178 38.0261C556.355 39.1988 555.938 40.7932 555.938 42.541C555.938 44.3008 556.354 45.9072 557.177 47.0891C558.01 48.2863 559.256 49.0332 560.831 49.0332C561.799 49.0332 562.647 48.7537 563.351 48.2569C562.694 48.829 561.824 49.2012 560.704 49.2012C559.189 49.2012 557.943 48.5475 557.063 47.4086C556.175 46.2593 555.644 44.5914 555.644 42.5664C555.644 40.5559 556.18 38.8878 557.075 37.7345C557.962 36.5909 559.215 35.9316 560.729 35.9316C561.879 35.9316 562.765 36.3239 563.423 36.921ZM565.724 42.541C565.724 41.26 565.506 40.0766 565.077 39.0801H565.097H565.198H565.698V38.5801V31.5391H565.968V48.9219H565.724V46.5527V46.0527H565.224H565.097H565.067C565.503 45.0432 565.724 43.8417 565.724 42.541Z" stroke="white"/>
<path d="M546.968 36.125C546.168 36.125 545.424 36.308 544.784 36.6522C545.417 36.2157 546.246 35.957 547.247 35.957C548.532 35.957 549.57 36.3753 550.286 37.1078C551.002 37.8408 551.444 38.9375 551.444 40.3828V48.9219H551.175V40.459C551.175 39.1964 550.771 38.1059 550.019 37.328C549.265 36.5485 548.202 36.125 546.968 36.125ZM543.058 38.3184H543.122C542.773 38.9703 542.583 39.7384 542.583 40.5859V48.9219H542.313V36.1348H542.558V37.8184V38.3184H543.058Z" stroke="white"/>
<path d="M532.661 42.0238L532.661 42.0239L532.667 42.0233C533.637 41.9352 535.928 41.7833 536.586 41.7453L537.058 41.7181V41.2461V39.7734C537.058 38.6756 536.676 37.733 535.94 37.0694C535.211 36.4111 534.185 36.0742 532.978 36.0742C531.109 36.0742 529.546 36.9031 528.981 38.3848H528.661C529.172 36.9235 530.785 35.9316 533.028 35.9316C534.119 35.9316 535.2 36.2173 535.996 36.8384C536.774 37.4451 537.327 38.4062 537.327 39.875V48.9219H537.058V47.0352V46.5352H536.558H536.456H536.437C536.838 45.7705 537.058 44.8753 537.058 43.9121V42.3379V41.7904L536.512 41.8399C535.816 41.9033 533.589 42.0803 532.851 42.1178L532.851 42.1177L532.841 42.1184C531.352 42.2238 530.243 42.5901 529.498 43.2149C528.734 43.856 528.415 44.718 528.415 45.6641C528.415 46.7082 528.832 47.5732 529.538 48.1694C530.236 48.7584 531.183 49.0586 532.216 49.0586C533.188 49.0586 534.055 48.7999 534.778 48.3465C534.087 48.8787 533.179 49.2266 532.063 49.2266C530.956 49.2266 529.975 48.8885 529.278 48.2829C528.59 47.6845 528.146 46.7966 528.146 45.6133C528.146 44.5289 528.528 43.719 529.24 43.1381C529.973 42.5411 531.104 42.1465 532.661 42.0238Z" stroke="white"/>
<path d="M517.697 46.9004H518.011C517.292 48.1467 515.768 49.2012 513.579 49.2012C511.829 49.2012 510.421 48.5187 509.443 47.3738C508.459 46.2215 507.884 44.5668 507.884 42.5918C507.884 38.6368 510.232 35.9316 513.325 35.9316C516.087 35.9316 518.614 38.1348 518.614 42.1348V42.3457H508.679H508.171L508.179 42.8533C508.205 44.6034 508.707 46.1448 509.641 47.2582C510.584 48.381 511.938 49.0332 513.579 49.0332C515.761 49.0332 517.071 47.8723 517.697 46.9004ZM508.205 41.6765L508.177 42.2031H508.704H517.819H518.319V41.7031C518.319 38.6224 516.226 36.0996 513.325 36.0996C510.42 36.0996 508.367 38.637 508.205 41.6765Z" stroke="white"/>
<path d="M499.843 49.2012C498.191 49.2012 496.827 48.5141 495.867 47.3569C494.9 46.1926 494.325 44.5283 494.325 42.5664C494.325 38.6637 496.647 35.9316 499.817 35.9316C502.045 35.9316 503.81 37.2382 504.356 39.2227H504.073C503.561 37.4195 501.963 36.0996 499.843 36.0996C496.698 36.0996 494.62 38.8997 494.62 42.541C494.62 44.3552 495.12 45.9677 496.03 47.1388C496.946 48.3183 498.268 49.0332 499.843 49.0332C501.886 49.0332 503.564 47.8261 504.1 45.8848H504.382C503.842 47.862 502.129 49.2012 499.843 49.2012Z" stroke="white"/>
<path d="M485.649 36.125C484.849 36.125 484.106 36.308 483.465 36.6522C484.099 36.2157 484.928 35.957 485.929 35.957C487.214 35.957 488.251 36.3753 488.967 37.1078C489.684 37.8408 490.126 38.9375 490.126 40.3828V48.9219H489.856V40.459C489.856 39.1964 489.452 38.1059 488.7 37.328C487.947 36.5485 486.884 36.125 485.649 36.125ZM481.739 38.3184H481.804C481.455 38.9703 481.265 39.7384 481.265 40.5859V48.9219H480.995V36.1348H481.239V37.8184V38.3184H481.739Z" stroke="white"/>
<path d="M475.879 46.9004H476.192C475.474 48.1467 473.95 49.2012 471.761 49.2012C470.01 49.2012 468.602 48.5187 467.625 47.3738C466.641 46.2215 466.065 44.5668 466.065 42.5918C466.065 38.6368 468.414 35.9316 471.507 35.9316C474.268 35.9316 476.796 38.1348 476.796 42.1348V42.3457H466.86H466.353L466.36 42.8533C466.387 44.6034 466.889 46.1448 467.823 47.2582C468.765 48.381 470.12 49.0332 471.761 49.0332C473.943 49.0332 475.253 47.8723 475.879 46.9004ZM466.386 41.6765L466.358 42.2031H466.886H476.001H476.501V41.7031C476.501 38.6224 474.408 36.0996 471.507 36.0996C468.601 36.0996 466.549 38.637 466.386 41.6765Z" stroke="white"/>
<path d="M461.546 48.9219V36.1348H461.841V48.9219H461.546ZM461.706 32.7227C461.398 32.7227 461.19 32.4902 461.19 32.2578C461.19 32.0254 461.398 31.793 461.706 31.793C461.98 31.793 462.196 32.0174 462.196 32.2578C462.196 32.4982 461.98 32.7227 461.706 32.7227Z" stroke="white"/>
<path d="M452.718 49.2012C451.066 49.2012 449.702 48.5141 448.742 47.3569C447.775 46.1926 447.2 44.5283 447.2 42.5664C447.2 38.6637 449.522 35.9316 452.692 35.9316C454.92 35.9316 456.685 37.2382 457.231 39.2227H456.948C456.436 37.4195 454.838 36.0996 452.718 36.0996C449.573 36.0996 447.495 38.8997 447.495 42.541C447.495 44.3552 447.995 45.9677 448.905 47.1388C449.821 48.3183 451.143 49.0332 452.718 49.0332C454.761 49.0332 456.439 47.8261 456.975 45.8848H457.257C456.717 47.862 455.004 49.2012 452.718 49.2012Z" stroke="white"/>
<path d="M438.992 40.253L438.992 40.253L438.995 40.2538C440.29 40.6272 441.427 41.1167 442.235 41.8123C443.023 42.4907 443.509 43.372 443.509 44.5977C443.509 45.9263 442.974 47.0685 442.015 47.886C441.05 48.7081 439.624 49.2266 437.813 49.2266C436.086 49.2266 434.718 48.7618 433.769 48.0003C432.957 47.3499 432.426 46.4643 432.234 45.4023H432.576C432.772 46.4691 433.344 47.3393 434.185 47.9557C435.135 48.6516 436.401 49.0078 437.813 49.0078C439.335 49.0078 440.677 48.5904 441.65 47.8208C442.631 47.0443 443.214 45.9245 443.214 44.5977C443.214 43.4927 442.783 42.6382 442 41.9727C441.243 41.3299 440.172 40.8744 438.898 40.4883L438.898 40.4883L438.894 40.4871L436.739 39.8534C435.349 39.4222 434.318 38.8646 433.639 38.1804C432.974 37.5092 432.626 36.6964 432.626 35.6855C432.626 33.1489 434.826 31.2598 437.966 31.2598C440.858 31.2598 442.847 32.8984 443.203 35.1602H442.899C442.714 34.1243 442.194 33.2444 441.412 32.6041C440.521 31.8745 439.317 31.4785 437.94 31.4785C435.125 31.4785 432.921 33.1597 432.921 35.6348C432.921 36.7553 433.416 37.6239 434.182 38.278C434.932 38.9182 435.942 39.3557 437.012 39.6692C437.013 39.6692 437.013 39.6693 437.013 39.6693L438.992 40.253Z" stroke="white"/>
<path d="M419.744 48.9219H419.474V36.752V36.252H418.974H417.442V36.1348H418.974H419.474V35.6348V33.5527C419.474 32.6084 419.748 31.9083 420.201 31.4458C420.651 30.9849 421.336 30.7012 422.274 30.7012C422.5 30.7012 422.756 30.7186 422.993 30.743V30.9163C422.809 30.9006 422.633 30.8945 422.478 30.8945C421.647 30.8945 420.943 31.1334 420.453 31.6653C419.97 32.1899 419.769 32.9211 419.769 33.7559V35.6348V36.1348H420.269H422.765V36.252H420.269H419.77L419.769 36.751L419.744 48.9219Z" stroke="white"/>
<path d="M408.741 49.2012C405.619 49.2012 403.274 46.5415 403.274 42.5664C403.274 38.5913 405.619 35.9316 408.741 35.9316C411.864 35.9316 414.208 38.5913 414.208 42.5664C414.208 46.5415 411.864 49.2012 408.741 49.2012ZM408.741 49.0332C410.347 49.0332 411.658 48.2876 412.553 47.0977C413.44 45.918 413.913 44.3144 413.913 42.5664C413.913 40.8305 413.44 39.2274 412.553 38.0452C411.659 36.8531 410.349 36.0996 408.741 36.0996C407.132 36.0996 405.822 36.8609 404.929 38.0553C404.043 39.24 403.569 40.8425 403.569 42.5664C403.569 44.3144 404.042 45.918 404.93 47.0977C405.825 48.2876 407.136 49.0332 408.741 49.0332Z" stroke="white"/>
<path d="M393.633 36.1348H393.937L388.365 51.5369L388.365 51.5369L388.364 51.5396C388.043 52.4434 387.613 53.0764 387.092 53.4843C386.577 53.8878 385.935 54.1016 385.128 54.1016C385.071 54.1016 385.013 54.1001 384.953 54.0979L384.956 53.9323C384.989 53.9331 385.021 53.9336 385.052 53.9336C385.544 53.9336 386.144 53.8805 386.725 53.4995C387.305 53.1196 387.797 52.461 388.187 51.3969L388.187 51.3969L388.188 51.3937L388.772 49.7687L388.833 49.599L388.772 49.4295L383.962 36.1348H384.266L388.414 47.9373L388.531 48.2715H388.886H389.013H389.367L389.484 47.9373L393.633 36.1348Z" stroke="white"/>
<path d="M376.774 36.252H375.243V36.1348H376.774H377.274V35.6348V32.834H377.544V35.6348V36.1348H378.044H380.438V36.252H378.044H377.544V36.752V46.0449C377.544 46.9942 377.85 47.7293 378.389 48.2227C378.919 48.7085 379.616 48.9062 380.304 48.9062V48.9064L380.317 48.9061L380.794 48.8938V49.1343C380.64 49.1447 380.45 49.1504 380.202 49.1504C378.67 49.1504 377.274 48.128 377.274 46.2988V36.752V36.252H376.774Z" stroke="white"/>
<path d="M371.104 48.9219V36.1348H371.399V48.9219H371.104ZM371.265 32.7227C370.957 32.7227 370.749 32.4902 370.749 32.2578C370.749 32.0254 370.957 31.793 371.265 31.793C371.539 31.793 371.755 32.0174 371.755 32.2578C371.755 32.4982 371.539 32.7227 371.265 32.7227Z" stroke="white"/>
<path d="M363.691 42.868L361.56 42.3352L361.56 42.3352L361.555 42.334C360.501 42.0825 359.741 41.6686 359.249 41.1519C358.764 40.6436 358.511 40.0074 358.511 39.2402C358.511 38.2767 358.917 37.4648 359.623 36.8844C360.336 36.2984 361.379 35.9316 362.657 35.9316C363.847 35.9316 364.786 36.2604 365.458 36.7894C365.979 37.1989 366.357 37.7417 366.568 38.3848H366.288C366.071 37.7356 365.678 37.1898 365.128 36.7913C364.474 36.3179 363.63 36.0748 362.66 36.0742C360.513 36.0479 358.806 37.2897 358.806 39.1895C358.806 39.9276 359.065 40.5732 359.595 41.0876C360.111 41.5878 360.852 41.9355 361.775 42.163C361.775 42.1631 361.776 42.1631 361.776 42.1632L363.907 42.696L363.907 42.696L363.911 42.697C364.952 42.9482 365.684 43.3549 366.153 43.8614C366.614 44.3597 366.854 44.9898 366.854 45.7656C366.854 46.774 366.45 47.6142 365.715 48.2121C364.972 48.8172 363.855 49.2012 362.403 49.2012C361.096 49.2012 360.081 48.8893 359.363 48.3468C358.785 47.911 358.368 47.3039 358.146 46.5195H358.473C358.681 47.2673 359.093 47.8782 359.7 48.3141C360.406 48.8214 361.331 49.0586 362.403 49.0586C363.582 49.0586 364.61 48.7748 365.358 48.2208C366.118 47.6568 366.56 46.8307 366.56 45.8418C366.56 45.11 366.311 44.4607 365.8 43.9421C365.301 43.4351 364.583 43.0845 363.691 42.868Z" stroke="white"/>
<path d="M355.378 35.9382V36.1833C355.304 36.1786 355.225 36.1758 355.142 36.1758C354.108 36.1758 353.177 36.4821 352.442 37.0159C353.098 36.3517 354.082 35.934 355.208 35.9317L355.378 35.9382ZM351.298 38.293C350.951 38.9044 350.757 39.6216 350.757 40.4082V48.9219H350.487V36.1348H350.731V37.793V38.293H351.231H351.298Z" stroke="white"/>
<path d="M345.371 46.9004H345.684C344.966 48.1467 343.442 49.2012 341.253 49.2012C339.502 49.2012 338.094 48.5187 337.117 47.3738C336.133 46.2215 335.558 44.5668 335.558 42.5918C335.558 38.6368 337.906 35.9316 340.999 35.9316C343.761 35.9316 346.288 38.1348 346.288 42.1348V42.3457H336.353H335.845L335.853 42.8533C335.879 44.6034 336.381 46.1448 337.315 47.2582C338.257 48.381 339.612 49.0332 341.253 49.0332C343.435 49.0332 344.745 47.8723 345.371 46.9004ZM335.879 41.6765L335.851 42.2031H336.378H345.493H345.993V41.7031C345.993 38.6224 343.9 36.0996 340.999 36.0996C338.093 36.0996 336.041 38.637 335.879 41.6765Z" stroke="white"/>
<path d="M328.318 47.9373L332.467 36.1348H332.77L328.131 48.9219H327.411L322.795 36.1348H323.1L327.248 47.9373L327.365 48.2715H327.72H327.847H328.201L328.318 47.9373Z" stroke="white"/>
<path d="M318.419 48.9219V36.1348H318.714V48.9219H318.419ZM318.579 32.7227C318.271 32.7227 318.063 32.4902 318.063 32.2578C318.063 32.0254 318.271 31.793 318.579 31.793C318.853 31.793 319.069 32.0174 319.069 32.2578C319.069 32.4982 318.853 32.7227 318.579 32.7227Z" stroke="white"/>
<path d="M308.956 36.125C308.156 36.125 307.412 36.308 306.772 36.6522C307.405 36.2157 308.235 35.957 309.235 35.957C310.521 35.957 311.558 36.3753 312.274 37.1078C312.99 37.8408 313.433 38.9375 313.433 40.3828V48.9219H313.163V40.459C313.163 39.1964 312.759 38.1059 312.007 37.328C311.253 36.5485 310.191 36.125 308.956 36.125ZM305.046 38.3184H305.11C304.761 38.9703 304.571 39.7384 304.571 40.5859V48.9219H304.302V36.1348H304.546V37.8184V38.3184H305.046Z" stroke="white"/>
<path d="M298.665 31.5391H298.985V43.2012C298.985 46.6629 296.386 49.2266 292.63 49.2266C288.874 49.2266 286.274 46.6629 286.274 43.2012V31.5391H286.595V43.125C286.595 46.4858 289.091 48.957 292.63 48.957C296.169 48.957 298.665 46.4858 298.665 43.125V31.5391Z" stroke="white"/>
<path d="M274.915 31.5391V48.9219H274.646V31.5391H274.915Z" stroke="white"/>
<path d="M264.993 42.0238L264.993 42.0239L264.999 42.0233C265.969 41.9352 268.26 41.7833 268.918 41.7453L269.39 41.7181V41.2461V39.7734C269.39 38.6756 269.008 37.733 268.272 37.0694C267.543 36.4111 266.517 36.0742 265.31 36.0742C263.441 36.0742 261.878 36.9031 261.313 38.3848H260.993C261.504 36.9235 263.117 35.9316 265.36 35.9316C266.451 35.9316 267.532 36.2173 268.328 36.8384C269.106 37.4451 269.659 38.4062 269.659 39.875V48.9219H269.39V47.0352V46.5352H268.89H268.788H268.769C269.17 45.7705 269.39 44.8753 269.39 43.9121V42.3379V41.7904L268.844 41.8399C268.148 41.9033 265.921 42.0803 265.183 42.1178L265.183 42.1177L265.173 42.1184C263.685 42.2238 262.575 42.5901 261.83 43.2149C261.066 43.856 260.747 44.718 260.747 45.6641C260.747 46.7082 261.164 47.5732 261.87 48.1694C262.568 48.7584 263.515 49.0586 264.548 49.0586C265.52 49.0586 266.387 48.7999 267.11 48.3465C266.419 48.8787 265.511 49.2266 264.396 49.2266C263.288 49.2266 262.307 48.8885 261.61 48.2829C260.922 47.6845 260.478 46.7966 260.478 45.6133C260.478 44.5289 260.86 43.719 261.572 43.1381C262.305 42.5411 263.436 42.1465 264.993 42.0238Z" stroke="white"/>
<path d="M251.751 36.125C250.951 36.125 250.207 36.308 249.567 36.6522C250.2 36.2157 251.03 35.957 252.03 35.957C253.316 35.957 254.353 36.3753 255.069 37.1078C255.785 37.8408 256.228 38.9375 256.228 40.3828V48.9219H255.958V40.459C255.958 39.1964 255.554 38.1059 254.802 37.328C254.048 36.5485 252.986 36.125 251.751 36.125ZM247.841 38.3184H247.905C247.556 38.9703 247.366 39.7384 247.366 40.5859V48.9219H247.097V36.1348H247.341V37.8184V38.3184H247.841Z" stroke="white"/>
<path d="M237.431 49.2012C234.308 49.2012 231.964 46.5415 231.964 42.5664C231.964 38.5913 234.308 35.9316 237.431 35.9316C240.553 35.9316 242.897 38.5913 242.897 42.5664C242.897 46.5415 240.553 49.2012 237.431 49.2012ZM237.431 49.0332C239.036 49.0332 240.347 48.2876 241.242 47.0977C242.129 45.918 242.603 44.3144 242.603 42.5664C242.603 40.8305 242.129 39.2274 241.243 38.0452C240.348 36.8531 239.038 36.0996 237.431 36.0996C235.822 36.0996 234.512 36.8609 233.618 38.0553C232.732 39.24 232.259 40.8425 232.259 42.5664C232.259 44.3144 232.732 45.918 233.619 47.0977C234.514 48.2876 235.825 49.0332 237.431 49.0332Z" stroke="white"/>
<path d="M227.444 48.9219V36.1348H227.739V48.9219H227.444ZM227.604 32.7227C227.297 32.7227 227.089 32.4902 227.089 32.2578C227.089 32.0254 227.297 31.793 227.604 31.793C227.879 31.793 228.095 32.0174 228.095 32.2578C228.095 32.4982 227.879 32.7227 227.604 32.7227Z" stroke="white"/>
<path d="M219.327 36.252H217.796V36.1348H219.327H219.827V35.6348V32.834H220.097V35.6348V36.1348H220.597H222.991V36.252H220.597H220.097V36.752V46.0449C220.097 46.9942 220.403 47.7293 220.941 48.2227C221.472 48.7085 222.169 48.9062 222.856 48.9062V48.9064L222.869 48.9061L223.347 48.8938V49.1343C223.193 49.1447 223.003 49.1504 222.755 49.1504C221.223 49.1504 219.827 48.128 219.827 46.2988V36.752V36.252H219.327Z" stroke="white"/>
<path d="M209.286 42.0238L209.286 42.0239L209.292 42.0233C210.262 41.9352 212.553 41.7833 213.211 41.7453L213.683 41.7181V41.2461V39.7734C213.683 38.6756 213.301 37.733 212.565 37.0694C211.836 36.4111 210.81 36.0742 209.603 36.0742C207.734 36.0742 206.171 36.9031 205.606 38.3848H205.286C205.797 36.9235 207.41 35.9316 209.653 35.9316C210.744 35.9316 211.825 36.2173 212.621 36.8384C213.399 37.4451 213.952 38.4062 213.952 39.875V48.9219H213.683V47.0352V46.5352H213.183H213.081H213.062C213.463 45.7705 213.683 44.8753 213.683 43.9121V42.3379V41.7904L213.137 41.8399C212.441 41.9033 210.214 42.0803 209.476 42.1178L209.476 42.1177L209.466 42.1184C207.977 42.2238 206.868 42.5901 206.123 43.2149C205.359 43.856 205.04 44.718 205.04 45.6641C205.04 46.7082 205.457 47.5732 206.163 48.1694C206.861 48.7584 207.808 49.0586 208.841 49.0586C209.813 49.0586 210.68 48.7999 211.403 48.3465C210.712 48.8787 209.804 49.2266 208.688 49.2266C207.581 49.2266 206.6 48.8885 205.903 48.2829C205.215 47.6845 204.771 46.7966 204.771 45.6133C204.771 44.5289 205.153 43.719 205.865 43.1381C206.598 42.5411 207.729 42.1465 209.286 42.0238Z" stroke="white"/>
<path d="M199.235 47.0605V31.5391H199.53V48.9219H199.018L187.742 33.1352L187.592 32.9258H187.335H187.208H186.708V33.4258V48.9219H186.388V31.5391H186.925L198.201 47.3509L198.351 47.5605H198.608H198.735H199.235V47.0605Z" stroke="white"/>
<path d="M175.028 31.5391V48.9219H174.759V31.5391H175.028Z" stroke="white"/>
<path d="M169.028 46.6621H168.972C169.324 46.0265 169.528 45.2651 169.528 44.3945V36.1348H169.798V48.9219H169.528V47.1621V46.6621H169.028ZM165.118 48.8555C166.006 48.8555 166.864 48.6078 167.584 48.1438C166.906 48.7288 165.96 49.0996 164.813 49.0996C163.584 49.0996 162.572 48.6845 161.867 47.9516C161.16 47.2177 160.718 46.1193 160.718 44.6738V36.1348H160.987V44.5977C160.987 45.8402 161.401 46.9107 162.145 47.6732C162.89 48.4362 163.931 48.8555 165.118 48.8555Z" stroke="white"/>
<path d="M151.052 49.2012C147.929 49.2012 145.585 46.5415 145.585 42.5664C145.585 38.5913 147.929 35.9316 151.052 35.9316C154.174 35.9316 156.519 38.5913 156.519 42.5664C156.519 46.5415 154.174 49.2012 151.052 49.2012ZM151.052 49.0332C152.657 49.0332 153.968 48.2876 154.863 47.0977C155.751 45.918 156.224 44.3144 156.224 42.5664C156.224 40.8305 155.75 39.2274 154.864 38.0452C153.97 36.8531 152.659 36.0996 151.052 36.0996C149.443 36.0996 148.133 36.8609 147.239 38.0553C146.354 39.24 145.88 40.8425 145.88 42.5664C145.88 44.3144 146.353 45.918 147.24 47.0977C148.135 48.2876 149.446 49.0332 151.052 49.0332Z" stroke="white"/>
<path d="M141.231 46.9004H141.544C140.825 48.1467 139.301 49.2012 137.112 49.2012C135.362 49.2012 133.954 48.5187 132.976 47.3738C131.992 46.2215 131.417 44.5668 131.417 42.5918C131.417 38.6368 133.766 35.9316 136.858 35.9316C139.62 35.9316 142.147 38.1348 142.147 42.1348V42.3457H132.212H131.704L131.712 42.8533C131.739 44.6034 132.24 46.1448 133.175 47.2582C134.117 48.381 135.471 49.0332 137.112 49.0332C139.294 49.0332 140.604 47.8723 141.231 46.9004ZM131.738 41.6765L131.71 42.2031H132.237H141.353H141.853V41.7031C141.853 38.6224 139.759 36.0996 136.858 36.0996C133.953 36.0996 131.9 38.637 131.738 41.6765Z" stroke="white"/>
<path d="M123.209 40.253L123.209 40.253L123.212 40.2538C124.506 40.6272 125.644 41.1167 126.452 41.8123C127.24 42.4907 127.726 43.372 127.726 44.5977C127.726 45.9263 127.191 47.0685 126.232 47.886C125.267 48.7081 123.841 49.2266 122.03 49.2266C120.302 49.2266 118.935 48.7618 117.985 48.0003C117.174 47.3499 116.643 46.4643 116.451 45.4023H116.793C116.989 46.4691 117.561 47.3393 118.402 47.9557C119.351 48.6516 120.618 49.0078 122.03 49.0078C123.552 49.0078 124.894 48.5904 125.867 47.8208C126.848 47.0443 127.431 45.9245 127.431 44.5977C127.431 43.4927 127 42.6382 126.217 41.9727C125.46 41.3299 124.389 40.8744 123.115 40.4883L123.115 40.4883L123.111 40.4871L120.956 39.8534C119.565 39.4222 118.535 38.8646 117.856 38.1804C117.191 37.5092 116.843 36.6964 116.843 35.6855C116.843 33.1489 119.043 31.2598 122.183 31.2598C125.075 31.2598 127.064 32.8984 127.42 35.1602H127.116C126.931 34.1243 126.411 33.2444 125.629 32.6041C124.737 31.8745 123.534 31.4785 122.157 31.4785C119.342 31.4785 117.138 33.1597 117.138 35.6348C117.138 36.7553 117.632 37.6239 118.398 38.278C119.148 38.9182 120.158 39.3557 121.229 39.6692C121.229 39.6692 121.23 39.6693 121.23 39.6693L123.209 40.253Z" stroke="white"/>
<path d="M101.413 36.125C100.613 36.125 99.8693 36.308 99.2288 36.6522C99.8624 36.2157 100.692 35.957 101.692 35.957C102.978 35.957 104.015 36.3753 104.731 37.1078C105.447 37.8408 105.89 38.9375 105.89 40.3828V48.9219H105.62V40.459C105.62 39.1964 105.216 38.1059 104.464 37.328C103.71 36.5485 102.648 36.125 101.413 36.125ZM97.5029 38.3184H97.5674C97.2185 38.9703 97.0283 39.7384 97.0283 40.5859V48.9219H96.7588V36.1348H97.0029V37.8184V38.3184H97.5029Z" stroke="white"/>
<path d="M91.4775 48.9219V36.1348H91.7725V48.9219H91.4775ZM91.6377 32.7227C91.3299 32.7227 91.1221 32.4902 91.1221 32.2578C91.1221 32.0254 91.3299 31.793 91.6377 31.793C91.9117 31.793 92.1279 32.0174 92.1279 32.2578C92.1279 32.4982 91.9117 32.7227 91.6377 32.7227Z" stroke="white"/>
<path d="M81.0486 36.1348H81.3528L75.7808 51.5369L75.7808 51.5369L75.7798 51.5396C75.4588 52.4434 75.0287 53.0764 74.508 53.4843C73.9931 53.8878 73.3509 54.1016 72.5439 54.1016C72.4875 54.1016 72.4287 54.1001 72.3689 54.0979L72.3725 53.9323C72.4049 53.9331 72.4369 53.9336 72.4678 53.9336C72.96 53.9336 73.56 53.8805 74.1414 53.4995C74.7214 53.1196 75.2126 52.461 75.6032 51.3969L75.6032 51.3969L75.6043 51.3937L76.1883 49.7687L76.2493 49.599L76.1879 49.4295L71.3777 36.1348H71.6819L75.83 47.9373L75.9475 48.2715H76.3018H76.4287H76.783L76.9004 47.9373L81.0486 36.1348Z" stroke="white"/>
<path d="M64.1904 36.252H62.6592V36.1348H64.1904H64.6904V35.6348V32.834H64.96V35.6348V36.1348H65.46H67.8545V36.252H65.46H64.96V36.752V46.0449C64.96 46.9942 65.2659 47.7293 65.8046 48.2227C66.3349 48.7085 67.0321 48.9062 67.7197 48.9062V48.9064L67.7325 48.9061L68.21 48.8938V49.1343C68.0562 49.1447 67.8659 49.1504 67.6182 49.1504C66.0863 49.1504 64.6904 48.128 64.6904 46.2988V36.752V36.252H64.1904Z" stroke="white"/>
<path d="M58.6856 46.9004H58.9988C58.2803 48.1467 56.7564 49.2012 54.5674 49.2012C52.8169 49.2012 51.4089 48.5187 50.4313 47.3738C49.4473 46.2215 48.8721 44.5668 48.8721 42.5918C48.8721 38.6368 51.2207 35.9316 54.3135 35.9316C57.0751 35.9316 59.6025 38.1348 59.6025 42.1348V42.3457H49.667H49.1593L49.1671 42.8533C49.1938 44.6034 49.6954 46.1448 50.6297 47.2582C51.5718 48.381 52.9262 49.0332 54.5674 49.0332C56.7494 49.0332 58.0593 47.8723 58.6856 46.9004ZM49.1931 41.6765L49.165 42.2031H49.6924H58.8076H59.3076V41.7031C59.3076 38.6224 57.2145 36.0996 54.3135 36.0996C51.4079 36.0996 49.3552 38.637 49.1931 41.6765Z" stroke="white"/>
<path d="M44.3525 48.9219V36.1348H44.6475V48.9219H44.3525ZM44.5127 32.7227C44.2049 32.7227 43.9971 32.4902 43.9971 32.2578C43.9971 32.0254 44.2049 31.793 44.5127 31.793C44.7867 31.793 45.0029 32.0174 45.0029 32.2578C45.0029 32.4982 44.7867 32.7227 44.5127 32.7227Z" stroke="white"/>
<path d="M35.5244 49.2012C33.8731 49.2012 32.5088 48.5141 31.5483 47.3569C30.5819 46.1926 30.0068 44.5283 30.0068 42.5664C30.0068 38.6637 32.3288 35.9316 35.499 35.9316C37.7267 35.9316 39.4911 37.2382 40.038 39.2227H39.7544C39.2428 37.4195 37.6448 36.0996 35.5244 36.0996C32.3796 36.0996 30.3018 38.8997 30.3018 42.541C30.3018 44.3552 30.8017 45.9677 31.7113 47.1388C32.6276 48.3183 33.95 49.0332 35.5244 49.0332C37.5675 49.0332 39.2457 47.8261 39.7816 45.8848H40.0636C39.5239 47.862 37.8108 49.2012 35.5244 49.2012Z" stroke="white"/>
<path d="M21.1025 49.2012C17.98 49.2012 15.6357 46.5415 15.6357 42.5664C15.6357 38.5913 17.98 35.9316 21.1025 35.9316C24.2251 35.9316 26.5693 38.5913 26.5693 42.5664C26.5693 46.5415 24.2251 49.2012 21.1025 49.2012ZM21.1025 49.0332C22.7082 49.0332 24.0189 48.2876 24.914 47.0977C25.8013 45.918 26.2744 44.3144 26.2744 42.5664C26.2744 40.8305 25.801 39.2274 24.9144 38.0452C24.0203 36.8531 22.7099 36.0996 21.1025 36.0996C19.4935 36.0996 18.1834 36.8609 17.2903 38.0553C16.4044 39.24 15.9307 40.8425 15.9307 42.5664C15.9307 44.3144 16.4037 45.918 17.2911 47.0977C18.1862 48.2876 19.4969 49.0332 21.1025 49.0332Z" stroke="white"/>
<path d="M7.42792 40.253L7.42792 40.253L7.43076 40.2538C8.72513 40.6272 9.86277 41.1167 10.6709 41.8123C11.459 42.4907 11.9443 43.372 11.9443 44.5977C11.9443 45.9263 11.41 47.0685 10.4506 47.886C9.48583 48.7081 8.05967 49.2266 6.24902 49.2266C4.52121 49.2266 3.15387 48.7618 2.20413 48.0003C1.393 47.3499 0.861747 46.4643 0.669901 45.4023H1.01172C1.20768 46.4691 1.77997 47.3393 2.62089 47.9557C3.57013 48.6516 4.83636 49.0078 6.24902 49.0078C7.77095 49.0078 9.11267 48.5904 10.0854 47.8208C11.0669 47.0443 11.6494 45.9245 11.6494 44.5977C11.6494 43.4927 11.2185 42.6382 10.4353 41.9727C9.67887 41.3299 8.60764 40.8744 7.33348 40.4883L7.33349 40.4883L7.32956 40.4871L5.1748 39.8534C3.78414 39.4222 2.75353 38.8646 2.07499 38.1804C1.40941 37.5092 1.06152 36.6964 1.06152 35.6855C1.06152 33.1489 3.2618 31.2598 6.40137 31.2598C9.29391 31.2598 11.283 32.8984 11.6386 35.1602H11.3346C11.1494 34.1243 10.6297 33.2444 9.84747 32.6041C8.95618 31.8745 7.75291 31.4785 6.37598 31.4785C3.56061 31.4785 1.35645 33.1597 1.35645 35.6348C1.35645 36.7553 1.85111 37.6239 2.61724 38.278C3.36712 38.9182 4.37707 39.3557 5.44804 39.6692C5.44817 39.6692 5.44829 39.6693 5.44842 39.6693L7.42792 40.253Z" stroke="white"/>
<path d="M613.639 4.93817V5.1833C613.564 5.17862 613.485 5.17578 613.402 5.17578C612.369 5.17578 611.438 5.48212 610.702 6.01594C611.359 5.35169 612.342 4.93395 613.469 4.93165L613.639 4.93817ZM609.559 7.29297C609.212 7.90442 609.018 8.62161 609.018 9.4082V17.9219H608.748V5.13477H608.992V6.79297V7.29297H609.492H609.559Z" stroke="white"/>
<path d="M599.082 18.2012C595.959 18.2012 593.615 15.5415 593.615 11.5664C593.615 7.59128 595.959 4.93164 599.082 4.93164C602.205 4.93164 604.549 7.59128 604.549 11.5664C604.549 15.5415 602.205 18.2012 599.082 18.2012ZM599.082 18.0332C600.688 18.0332 601.998 17.2876 602.893 16.0977C603.781 14.918 604.254 13.3144 604.254 11.5664C604.254 9.83047 603.781 8.22738 602.894 7.04521C602 5.85307 600.689 5.09961 599.082 5.09961C597.473 5.09961 596.163 5.86091 595.27 7.0553C594.384 8.23995 593.91 9.84252 593.91 11.5664C593.91 13.3144 594.383 14.918 595.271 16.0977C596.166 17.2876 597.476 18.0332 599.082 18.0332Z" stroke="white"/>
<path d="M586.438 5.25195H584.906V5.13477H586.438H586.938V4.63477V1.83398H587.207V4.63477V5.13477H587.707H590.102V5.25195H587.707H587.207V5.75195V15.0449C587.207 15.9942 587.513 16.7293 588.052 17.2227C588.582 17.7085 589.279 17.9062 589.967 17.9062V17.9064L589.98 17.9061L590.457 17.8938V18.1343C590.303 18.1447 590.113 18.1504 589.865 18.1504C588.333 18.1504 586.938 17.128 586.938 15.2988V5.75195V5.25195H586.438Z" stroke="white"/>
<path d="M576.397 11.0238L576.397 11.0239L576.403 11.0233C577.372 10.9352 579.663 10.7833 580.322 10.7453L580.793 10.7181V10.2461V8.77344C580.793 7.67556 580.411 6.73297 579.676 6.06941C578.946 5.41111 577.92 5.07422 576.713 5.07422C574.844 5.07422 573.282 5.90314 572.716 7.38477H572.396C572.907 5.92352 574.52 4.93164 576.764 4.93164C577.854 4.93164 578.935 5.21731 579.732 5.8384C580.51 6.44508 581.062 7.40617 581.062 8.875V17.9219H580.793V16.0352V15.5352H580.293H580.191H580.172C580.573 14.7705 580.793 13.8753 580.793 12.9121V11.3379V10.7904L580.248 10.8399C579.551 10.9033 577.325 11.0803 576.586 11.1178L576.586 11.1177L576.576 11.1184C575.088 11.2238 573.978 11.5901 573.234 12.2149C572.47 12.856 572.15 13.718 572.15 14.6641C572.15 15.7082 572.567 16.5732 573.274 17.1694C573.971 17.7584 574.918 18.0586 575.951 18.0586C576.923 18.0586 577.791 17.7999 578.513 17.3465C577.822 17.8787 576.914 18.2266 575.799 18.2266C574.691 18.2266 573.71 17.8885 573.013 17.2829C572.325 16.6845 571.881 15.7966 571.881 14.6133C571.881 13.5289 572.263 12.719 572.976 12.1381C573.708 11.5411 574.839 11.1465 576.397 11.0238Z" stroke="white"/>
<path d="M563.789 18.2012C562.138 18.2012 560.773 17.5141 559.813 16.3569C558.847 15.1926 558.271 13.5283 558.271 11.5664C558.271 7.66367 560.593 4.93164 563.764 4.93164C565.991 4.93164 567.756 6.23817 568.303 8.22266H568.019C567.507 6.41954 565.909 5.09961 563.789 5.09961C560.644 5.09961 558.566 7.89971 558.566 11.541C558.566 13.3552 559.066 14.9677 559.976 16.1388C560.892 17.3183 562.215 18.0332 563.789 18.0332C565.832 18.0332 567.51 16.8261 568.046 14.8848H568.328C567.789 16.862 566.075 18.2012 563.789 18.2012Z" stroke="white"/>
<path d="M553.752 17.9219V5.13477H554.047V17.9219H553.752ZM553.912 1.72266C553.604 1.72266 553.396 1.49018 553.396 1.25781C553.396 1.02544 553.604 0.792969 553.912 0.792969C554.186 0.792969 554.402 1.01743 554.402 1.25781C554.402 1.49819 554.186 1.72266 553.912 1.72266Z" stroke="white"/>
<path d="M548.766 0.539062V17.9219H548.496V0.539062H548.766Z" stroke="white"/>
<path d="M539.262 18.2012C538.136 18.2012 537.257 17.8253 536.597 17.2502C537.299 17.751 538.144 18.0332 539.109 18.0332C540.685 18.0332 541.93 17.2863 542.763 16.0891C543.586 14.9072 544.002 13.3008 544.002 11.541C544.002 9.79482 543.593 8.20027 542.772 7.02691C541.94 5.83736 540.694 5.09961 539.109 5.09961C538.133 5.09961 537.282 5.38105 536.577 5.88194C537.228 5.30663 538.099 4.93164 539.236 4.93164C540.752 4.93164 541.998 5.58534 542.878 6.72418C543.766 7.87347 544.297 9.54139 544.297 11.5664C544.297 13.5769 543.76 15.2457 542.871 16.3996C541.989 17.5441 540.748 18.2012 539.262 18.2012ZM534.881 8.08008C534.456 9.07687 534.242 10.2604 534.242 11.541C534.242 12.842 534.463 14.0434 534.898 15.0527H534.869H534.742H534.242V15.5527V23.1016H533.973V5.13477H534.217V7.58008V8.08008H534.717H534.869H534.881Z" stroke="white"/>
<path d="M524.738 18.2012C523.613 18.2012 522.734 17.8253 522.074 17.2502C522.776 17.751 523.621 18.0332 524.586 18.0332C526.161 18.0332 527.407 17.2863 528.24 16.0891C529.063 14.9072 529.479 13.3008 529.479 11.541C529.479 9.79482 529.069 8.20027 528.249 7.02691C527.417 5.83736 526.171 5.09961 524.586 5.09961C523.61 5.09961 522.759 5.38105 522.054 5.88194C522.704 5.30663 523.575 4.93164 524.713 4.93164C526.228 4.93164 527.474 5.58534 528.354 6.72418C529.242 7.87347 529.773 9.54139 529.773 11.5664C529.773 13.5769 529.237 15.2457 528.348 16.3996C527.465 17.5441 526.225 18.2012 524.738 18.2012ZM520.358 8.08008C519.933 9.07687 519.719 10.2604 519.719 11.541C519.719 12.842 519.94 14.0434 520.374 15.0527H520.346H520.219H519.719V15.5527V23.1016H519.449V5.13477H519.693V7.58008V8.08008H520.193H520.346H520.358Z" stroke="white"/>
<path d="M513.504 12.4902L513.386 12.1582H513.033H505.162H504.81L504.691 12.4902L502.753 17.9219H502.421L508.687 0.539062H509.483L515.774 17.9219H515.442L513.504 12.4902ZM505.123 11.2975L504.886 11.9648H505.594H512.627H513.337L513.098 11.2964L509.619 1.57183L509.501 1.24023H509.148H509.047H508.694L508.576 1.57292L505.123 11.2975Z" stroke="white"/>
</svg>
